<?xml version="1.0" encoding="UTF-8"?>
<svg xmlns="http://www.w3.org/2000/svg" xmlns:xlink="http://www.w3.org/1999/xlink" width="3873" height="3873" viewBox="0 0 3873 3873">
<defs>
<clipPath id="clip-0">
<path clip-rule="evenodd" d="M 1936.5 0 C 3006 0 3873 867 3873 1936.5 C 3873 3006 3006 3873 1936.5 3873 C 867 3873 0 3006 0 1936.5 C 0 867 867 0 1936.5 0 "/>
</clipPath>
<linearGradient id="linear-pattern-0" gradientUnits="userSpaceOnUse" x1="-0.500008" y1="0" x2="1.500007" y2="0" gradientTransform="matrix(2072.1, -1778.48, 1778.48, 2072.1, 900.452, 2825.74)">
<stop offset="0" stop-color="rgb(100%, 39.99939%, 19.999695%)" stop-opacity="1"/>
<stop offset="0.25" stop-color="rgb(100%, 39.99939%, 19.999695%)" stop-opacity="1"/>
<stop offset="0.253906" stop-color="rgb(99.377441%, 39.376831%, 20.620728%)" stop-opacity="1"/>
<stop offset="0.257812" stop-color="rgb(98.754883%, 38.754272%, 21.243286%)" stop-opacity="1"/>
<stop offset="0.261719" stop-color="rgb(98.132324%, 38.131714%, 21.865845%)" stop-opacity="1"/>
<stop offset="0.265625" stop-color="rgb(97.509766%, 37.509155%, 22.488403%)" stop-opacity="1"/>
<stop offset="0.269531" stop-color="rgb(96.887207%, 36.886597%, 23.110962%)" stop-opacity="1"/>
<stop offset="0.273437" stop-color="rgb(96.264648%, 36.264038%, 23.733521%)" stop-opacity="1"/>
<stop offset="0.277344" stop-color="rgb(95.64209%, 35.641479%, 24.356079%)" stop-opacity="1"/>
<stop offset="0.28125" stop-color="rgb(95.019531%, 35.018921%, 24.978638%)" stop-opacity="1"/>
<stop offset="0.285156" stop-color="rgb(94.396973%, 34.396362%, 25.601196%)" stop-opacity="1"/>
<stop offset="0.289062" stop-color="rgb(93.774414%, 33.773804%, 26.223755%)" stop-opacity="1"/>
<stop offset="0.292969" stop-color="rgb(93.151855%, 33.151245%, 26.846313%)" stop-opacity="1"/>
<stop offset="0.296875" stop-color="rgb(92.529297%, 32.528687%, 27.468872%)" stop-opacity="1"/>
<stop offset="0.300781" stop-color="rgb(91.906738%, 31.906128%, 28.091431%)" stop-opacity="1"/>
<stop offset="0.304688" stop-color="rgb(91.28418%, 31.285095%, 28.713989%)" stop-opacity="1"/>
<stop offset="0.308594" stop-color="rgb(90.661621%, 30.662537%, 29.336548%)" stop-opacity="1"/>
<stop offset="0.3125" stop-color="rgb(90.039062%, 30.039978%, 29.959106%)" stop-opacity="1"/>
<stop offset="0.316406" stop-color="rgb(89.416504%, 29.417419%, 30.581665%)" stop-opacity="1"/>
<stop offset="0.320312" stop-color="rgb(88.793945%, 28.794861%, 31.204224%)" stop-opacity="1"/>
<stop offset="0.324219" stop-color="rgb(88.171387%, 28.172302%, 31.826782%)" stop-opacity="1"/>
<stop offset="0.328125" stop-color="rgb(87.548828%, 27.549744%, 32.449341%)" stop-opacity="1"/>
<stop offset="0.332031" stop-color="rgb(86.92627%, 26.927185%, 33.071899%)" stop-opacity="1"/>
<stop offset="0.335938" stop-color="rgb(86.303711%, 26.304626%, 33.694458%)" stop-opacity="1"/>
<stop offset="0.339844" stop-color="rgb(85.681152%, 25.682068%, 34.317017%)" stop-opacity="1"/>
<stop offset="0.34375" stop-color="rgb(85.058594%, 25.059509%, 34.939575%)" stop-opacity="1"/>
<stop offset="0.347656" stop-color="rgb(84.436035%, 24.436951%, 35.562134%)" stop-opacity="1"/>
<stop offset="0.351562" stop-color="rgb(83.813477%, 23.814392%, 36.184692%)" stop-opacity="1"/>
<stop offset="0.355469" stop-color="rgb(83.190918%, 23.191833%, 36.807251%)" stop-opacity="1"/>
<stop offset="0.359375" stop-color="rgb(82.569885%, 22.569275%, 37.42981%)" stop-opacity="1"/>
<stop offset="0.363281" stop-color="rgb(81.947327%, 21.946716%, 38.052368%)" stop-opacity="1"/>
<stop offset="0.367187" stop-color="rgb(81.324768%, 21.324158%, 38.674927%)" stop-opacity="1"/>
<stop offset="0.371094" stop-color="rgb(80.702209%, 20.701599%, 39.297485%)" stop-opacity="1"/>
<stop offset="0.375" stop-color="rgb(80.079651%, 20.079041%, 39.920044%)" stop-opacity="1"/>
<stop offset="0.378906" stop-color="rgb(80.203247%, 20.788574%, 39.756775%)" stop-opacity="1"/>
<stop offset="0.382812" stop-color="rgb(80.328369%, 21.499634%, 39.593506%)" stop-opacity="1"/>
<stop offset="0.386719" stop-color="rgb(80.503845%, 22.30072%, 39.376831%)" stop-opacity="1"/>
<stop offset="0.390625" stop-color="rgb(80.680847%, 23.103333%, 39.160156%)" stop-opacity="1"/>
<stop offset="0.394531" stop-color="rgb(80.856323%, 23.904419%, 38.943481%)" stop-opacity="1"/>
<stop offset="0.398438" stop-color="rgb(81.031799%, 24.707031%, 38.726807%)" stop-opacity="1"/>
<stop offset="0.402344" stop-color="rgb(81.207275%, 25.508118%, 38.510132%)" stop-opacity="1"/>
<stop offset="0.40625" stop-color="rgb(81.384277%, 26.31073%, 38.293457%)" stop-opacity="1"/>
<stop offset="0.410156" stop-color="rgb(81.559753%, 27.111816%, 38.075256%)" stop-opacity="1"/>
<stop offset="0.414062" stop-color="rgb(81.735229%, 27.912903%, 37.858582%)" stop-opacity="1"/>
<stop offset="0.417969" stop-color="rgb(81.910706%, 28.713989%, 37.641907%)" stop-opacity="1"/>
<stop offset="0.421875" stop-color="rgb(82.087708%, 29.516602%, 37.425232%)" stop-opacity="1"/>
<stop offset="0.425781" stop-color="rgb(82.263184%, 30.317688%, 37.208557%)" stop-opacity="1"/>
<stop offset="0.429688" stop-color="rgb(82.43866%, 31.1203%, 36.991882%)" stop-opacity="1"/>
<stop offset="0.433594" stop-color="rgb(82.614136%, 31.921387%, 36.775208%)" stop-opacity="1"/>
<stop offset="0.4375" stop-color="rgb(82.791138%, 32.723999%, 36.558533%)" stop-opacity="1"/>
<stop offset="0.441406" stop-color="rgb(82.966614%, 33.525085%, 36.341858%)" stop-opacity="1"/>
<stop offset="0.445312" stop-color="rgb(83.14209%, 34.327698%, 36.125183%)" stop-opacity="1"/>
<stop offset="0.449219" stop-color="rgb(83.317566%, 35.128784%, 35.908508%)" stop-opacity="1"/>
<stop offset="0.453125" stop-color="rgb(83.494568%, 35.931396%, 35.691833%)" stop-opacity="1"/>
<stop offset="0.457031" stop-color="rgb(83.670044%, 36.732483%, 35.473633%)" stop-opacity="1"/>
<stop offset="0.460938" stop-color="rgb(83.84552%, 37.535095%, 35.256958%)" stop-opacity="1"/>
<stop offset="0.464844" stop-color="rgb(84.020996%, 38.336182%, 35.040283%)" stop-opacity="1"/>
<stop offset="0.46875" stop-color="rgb(84.197998%, 39.137268%, 34.823608%)" stop-opacity="1"/>
<stop offset="0.472656" stop-color="rgb(84.373474%, 39.938354%, 34.606934%)" stop-opacity="1"/>
<stop offset="0.476562" stop-color="rgb(84.550476%, 40.740967%, 34.390259%)" stop-opacity="1"/>
<stop offset="0.480469" stop-color="rgb(84.725952%, 41.542053%, 34.173584%)" stop-opacity="1"/>
<stop offset="0.484375" stop-color="rgb(84.901428%, 42.344666%, 33.956909%)" stop-opacity="1"/>
<stop offset="0.488281" stop-color="rgb(85.076904%, 43.145752%, 33.740234%)" stop-opacity="1"/>
<stop offset="0.492188" stop-color="rgb(85.253906%, 43.948364%, 33.52356%)" stop-opacity="1"/>
<stop offset="0.496094" stop-color="rgb(85.429382%, 44.749451%, 33.306885%)" stop-opacity="1"/>
<stop offset="0.5" stop-color="rgb(85.604858%, 45.552063%, 33.09021%)" stop-opacity="1"/>
<stop offset="0.503906" stop-color="rgb(85.780334%, 46.353149%, 32.872009%)" stop-opacity="1"/>
<stop offset="0.507812" stop-color="rgb(85.957336%, 47.155762%, 32.655334%)" stop-opacity="1"/>
<stop offset="0.511719" stop-color="rgb(86.132812%, 47.956848%, 32.43866%)" stop-opacity="1"/>
<stop offset="0.515625" stop-color="rgb(86.308289%, 48.757935%, 32.221985%)" stop-opacity="1"/>
<stop offset="0.519531" stop-color="rgb(86.483765%, 49.559021%, 32.00531%)" stop-opacity="1"/>
<stop offset="0.523438" stop-color="rgb(86.660767%, 50.361633%, 31.788635%)" stop-opacity="1"/>
<stop offset="0.527344" stop-color="rgb(86.836243%, 51.16272%, 31.57196%)" stop-opacity="1"/>
<stop offset="0.53125" stop-color="rgb(87.011719%, 51.965332%, 31.355286%)" stop-opacity="1"/>
<stop offset="0.535156" stop-color="rgb(87.187195%, 52.766418%, 31.138611%)" stop-opacity="1"/>
<stop offset="0.539062" stop-color="rgb(87.364197%, 53.569031%, 30.921936%)" stop-opacity="1"/>
<stop offset="0.542969" stop-color="rgb(87.539673%, 54.370117%, 30.705261%)" stop-opacity="1"/>
<stop offset="0.546875" stop-color="rgb(87.715149%, 55.172729%, 30.488586%)" stop-opacity="1"/>
<stop offset="0.550781" stop-color="rgb(87.890625%, 55.973816%, 30.271912%)" stop-opacity="1"/>
<stop offset="0.554688" stop-color="rgb(88.067627%, 56.776428%, 30.055237%)" stop-opacity="1"/>
<stop offset="0.558594" stop-color="rgb(88.243103%, 57.577515%, 29.837036%)" stop-opacity="1"/>
<stop offset="0.5625" stop-color="rgb(88.418579%, 58.378601%, 29.620361%)" stop-opacity="1"/>
<stop offset="0.566406" stop-color="rgb(88.594055%, 59.179688%, 29.403687%)" stop-opacity="1"/>
<stop offset="0.570312" stop-color="rgb(88.771057%, 59.9823%, 29.187012%)" stop-opacity="1"/>
<stop offset="0.574219" stop-color="rgb(88.946533%, 60.783386%, 28.970337%)" stop-opacity="1"/>
<stop offset="0.578125" stop-color="rgb(89.123535%, 61.585999%, 28.753662%)" stop-opacity="1"/>
<stop offset="0.582031" stop-color="rgb(89.299011%, 62.387085%, 28.536987%)" stop-opacity="1"/>
<stop offset="0.585938" stop-color="rgb(89.474487%, 63.189697%, 28.320312%)" stop-opacity="1"/>
<stop offset="0.589844" stop-color="rgb(89.649963%, 63.990784%, 28.103638%)" stop-opacity="1"/>
<stop offset="0.59375" stop-color="rgb(89.826965%, 64.793396%, 27.886963%)" stop-opacity="1"/>
<stop offset="0.597656" stop-color="rgb(90.002441%, 65.594482%, 27.670288%)" stop-opacity="1"/>
<stop offset="0.601562" stop-color="rgb(90.177917%, 66.397095%, 27.453613%)" stop-opacity="1"/>
<stop offset="0.605469" stop-color="rgb(90.353394%, 67.198181%, 27.235413%)" stop-opacity="1"/>
<stop offset="0.609375" stop-color="rgb(90.530396%, 68.000793%, 27.018738%)" stop-opacity="1"/>
<stop offset="0.613281" stop-color="rgb(90.705872%, 68.80188%, 26.802063%)" stop-opacity="1"/>
<stop offset="0.617188" stop-color="rgb(90.881348%, 69.602966%, 26.585388%)" stop-opacity="1"/>
<stop offset="0.621094" stop-color="rgb(91.056824%, 70.404053%, 26.368713%)" stop-opacity="1"/>
<stop offset="0.625" stop-color="rgb(91.233826%, 71.206665%, 26.152039%)" stop-opacity="1"/>
<stop offset="0.628906" stop-color="rgb(91.409302%, 72.007751%, 25.935364%)" stop-opacity="1"/>
<stop offset="0.632812" stop-color="rgb(91.584778%, 72.810364%, 25.718689%)" stop-opacity="1"/>
<stop offset="0.636719" stop-color="rgb(91.760254%, 73.61145%, 25.502014%)" stop-opacity="1"/>
<stop offset="0.640625" stop-color="rgb(91.937256%, 74.414062%, 25.285339%)" stop-opacity="1"/>
<stop offset="0.644531" stop-color="rgb(92.112732%, 75.215149%, 25.068665%)" stop-opacity="1"/>
<stop offset="0.648437" stop-color="rgb(92.288208%, 76.017761%, 24.85199%)" stop-opacity="1"/>
<stop offset="0.652344" stop-color="rgb(92.463684%, 76.818848%, 24.635315%)" stop-opacity="1"/>
<stop offset="0.65625" stop-color="rgb(92.640686%, 77.62146%, 24.41864%)" stop-opacity="1"/>
<stop offset="0.660156" stop-color="rgb(92.816162%, 78.422546%, 24.200439%)" stop-opacity="1"/>
<stop offset="0.664062" stop-color="rgb(92.993164%, 79.223633%, 23.983765%)" stop-opacity="1"/>
<stop offset="0.667969" stop-color="rgb(93.16864%, 80.024719%, 23.76709%)" stop-opacity="1"/>
<stop offset="0.671875" stop-color="rgb(93.344116%, 80.827332%, 23.550415%)" stop-opacity="1"/>
<stop offset="0.675781" stop-color="rgb(93.519592%, 81.628418%, 23.33374%)" stop-opacity="1"/>
<stop offset="0.679688" stop-color="rgb(93.696594%, 82.43103%, 23.117065%)" stop-opacity="1"/>
<stop offset="0.683594" stop-color="rgb(93.87207%, 83.232117%, 22.900391%)" stop-opacity="1"/>
<stop offset="0.6875" stop-color="rgb(94.047546%, 84.034729%, 22.683716%)" stop-opacity="1"/>
<stop offset="0.691406" stop-color="rgb(94.223022%, 84.835815%, 22.467041%)" stop-opacity="1"/>
<stop offset="0.695312" stop-color="rgb(94.400024%, 85.638428%, 22.250366%)" stop-opacity="1"/>
<stop offset="0.699219" stop-color="rgb(94.5755%, 86.439514%, 22.033691%)" stop-opacity="1"/>
<stop offset="0.703125" stop-color="rgb(94.750977%, 87.242126%, 21.817017%)" stop-opacity="1"/>
<stop offset="0.707031" stop-color="rgb(94.926453%, 88.043213%, 21.598816%)" stop-opacity="1"/>
<stop offset="0.710938" stop-color="rgb(95.103455%, 88.844299%, 21.382141%)" stop-opacity="1"/>
<stop offset="0.714844" stop-color="rgb(95.278931%, 89.645386%, 21.165466%)" stop-opacity="1"/>
<stop offset="0.71875" stop-color="rgb(95.454407%, 90.447998%, 20.948792%)" stop-opacity="1"/>
<stop offset="0.722656" stop-color="rgb(95.629883%, 91.249084%, 20.732117%)" stop-opacity="1"/>
<stop offset="0.726562" stop-color="rgb(95.806885%, 92.051697%, 20.515442%)" stop-opacity="1"/>
<stop offset="0.730469" stop-color="rgb(95.982361%, 92.852783%, 20.298767%)" stop-opacity="1"/>
<stop offset="0.734375" stop-color="rgb(96.157837%, 93.655396%, 20.082092%)" stop-opacity="1"/>
<stop offset="0.738281" stop-color="rgb(96.333313%, 94.456482%, 19.865417%)" stop-opacity="1"/>
<stop offset="0.742187" stop-color="rgb(96.510315%, 95.259094%, 19.648743%)" stop-opacity="1"/>
<stop offset="0.746094" stop-color="rgb(96.685791%, 96.060181%, 19.432068%)" stop-opacity="1"/>
<stop offset="0.75" stop-color="rgb(96.861267%, 96.861267%, 19.215393%)" stop-opacity="1"/>
<stop offset="1" stop-color="rgb(96.861267%, 96.861267%, 19.215393%)" stop-opacity="1"/>
</linearGradient>
</defs>
<g clip-path="url(#clip-0)">
<path fill-rule="nonzero" fill="url(#linear-pattern-0)" d="M -1914.109375 1642.878906 L 1642.878906 5787.109375 L 5787.109375 2230.121094 L 2230.121094 -1914.109375 Z M -1914.109375 1642.878906 "/>
</g>
<path fill-rule="nonzero" fill="rgb(100%, 100%, 99.609375%)" fill-opacity="1" d="M 2005.398438 2096.199219 C 2036.800781 2076.898438 2065.800781 2054 2091.800781 2028 C 2106.699219 2013.101562 2120.699219 1997.101562 2133.5 1980.300781 C 2100.699219 1986 2068 1991 2035.199219 1995.199219 C 2026.699219 2028.898438 2016.699219 2062.601562 2005.398438 2096.199219 Z M 1781.800781 2164.800781 C 1841.5 2162.101562 1898.199219 2148.300781 1950.101562 2125.398438 C 1965.699219 2083.699219 1979 2042.199219 1990 2000.699219 C 1920.601562 2008.199219 1851.199219 2012.300781 1781.800781 2013 Z M 1571 2125.300781 C 1622.800781 2148.300781 1679.601562 2162.101562 1739.300781 2164.699219 L 1739.300781 2012.898438 C 1669.800781 2012.300781 1600.398438 2008.199219 1531.199219 2000.800781 C 1542.199219 2042.199219 1555.5 2083.699219 1571 2125.300781 Z M 1387.800781 1980.601562 C 1400.601562 1997.300781 1414.398438 2013.199219 1429.300781 2028.101562 C 1455.300781 2054.101562 1484.300781 2077 1515.699219 2096.300781 C 1504.398438 2062.699219 1494.5 2029.101562 1486 1995.601562 C 1453.199219 1991.300781 1420.5 1986.300781 1387.800781 1980.601562 Z M 2045.5 1951.101562 C 2085.699219 1945.601562 2126 1939 2166.199219 1931.101562 C 2202.800781 1867.898438 2225 1795.398438 2228.5 1718 L 2072.898438 1718 C 2071.398438 1795.5 2062.300781 1873.199219 2045.5 1951.101562 Z M 1781.800781 1970.601562 C 1854.699219 1969.800781 1927.699219 1965.199219 2000.800781 1956.699219 C 2019.101562 1876.800781 2029 1797.199219 2030.601562 1718 L 1781.800781 1718 Z M 1520.300781 1957 C 1593.300781 1965.398438 1666.300781 1970 1739.300781 1970.699219 L 1739.300781 1718.101562 L 1490.5 1718.101562 C 1492.101562 1797.398438 1502 1877 1520.300781 1957 Z M 1292.601562 1718.101562 C 1296.101562 1795.601562 1318.300781 1868.199219 1355 1931.398438 C 1395.199219 1939.199219 1435.5 1945.898438 1475.699219 1951.398438 C 1458.898438 1873.398438 1449.800781 1795.699219 1448.199219 1718.101562 Z M 2072.898438 1675.601562 L 2228.5 1675.601562 C 2225 1598.199219 2202.800781 1525.601562 2166.199219 1462.5 C 2126.101562 1454.699219 2086 1448.101562 2046 1442.601562 C 2062.699219 1520 2071.699219 1597.601562 2072.898438 1675.601562 Z M 1781.800781 1675.601562 L 2030.699219 1675.601562 C 2029.300781 1595.800781 2019.601562 1516.199219 2001.5 1436.898438 C 1928.101562 1428.398438 1854.898438 1423.800781 1781.800781 1423 Z M 1490.398438 1675.601562 L 1739.300781 1675.601562 L 1739.300781 1423 C 1666.101562 1423.699219 1592.898438 1428.300781 1519.699219 1436.699219 C 1501.601562 1516.101562 1491.800781 1595.699219 1490.398438 1675.601562 Z M 1355 1462.300781 C 1318.398438 1525.5 1296.101562 1598.101562 1292.601562 1675.601562 L 1448.199219 1675.601562 C 1449.5 1597.601562 1458.5 1519.800781 1475.199219 1442.398438 C 1435.101562 1447.898438 1395 1454.5 1355 1462.300781 Z M 1515.199219 1297.699219 C 1483.898438 1317 1455.101562 1339.800781 1429.300781 1365.601562 C 1414.398438 1380.5 1400.601562 1396.300781 1387.800781 1413.101562 C 1420.300781 1407.398438 1452.898438 1402.5 1485.398438 1398.300781 C 1493.898438 1364.699219 1503.898438 1331.199219 1515.199219 1297.699219 Z M 1739.300781 1228.898438 C 1679.5 1231.601562 1622.601562 1245.5 1570.601562 1268.5 C 1555 1309.898438 1541.601562 1351.398438 1530.5 1392.898438 C 1600 1385.398438 1669.5 1381.398438 1739.300781 1380.699219 Z M 1950.398438 1268.5 C 1898.5 1245.398438 1841.601562 1231.5 1781.699219 1228.898438 L 1781.699219 1380.800781 C 1851.300781 1381.5 1920.898438 1385.699219 1990.5 1393.199219 C 1979.5 1351.5 1966.101562 1310 1950.398438 1268.5 Z M 2091.800781 1365.601562 C 2066 1339.800781 2037.101562 1317 2005.898438 1297.699219 C 2017.300781 1331.199219 2027.199219 1364.800781 2035.699219 1398.5 C 2068.300781 1402.699219 2100.898438 1407.699219 2133.398438 1413.300781 C 2120.601562 1396.5 2106.699219 1380.5 2091.800781 1365.601562 "/>
<path fill-rule="evenodd" fill="rgb(100%, 100%, 99.609375%)" fill-opacity="1" d="M 2557.800781 1459.199219 L 2245 2354.601562 C 2236 2380.398438 2211.898438 2397.300781 2184.601562 2397.300781 L 1388.898438 2397.300781 C 1364.699219 2397.300781 1343.699219 2383.5 1332.199219 2362.5 L 1078.199219 1898.699219 L 960.101562 1898.699219 C 924.898438 1898.699219 896.398438 1870.199219 896.398438 1835 C 896.398438 1799.800781 924.898438 1771.300781 960.101562 1771.300781 L 1115.898438 1771.300781 C 1140.101562 1771.300781 1161.101562 1785.101562 1172.601562 1806.101562 L 1426.601562 2269.898438 L 2139.898438 2269.898438 L 2452.199219 1376.199219 C 2461.300781 1350.199219 2484.898438 1331.898438 2512.800781 1331.898438 L 2913 1331.898438 C 2948.199219 1331.898438 2976.699219 1360.398438 2976.699219 1395.601562 C 2976.699219 1430.800781 2948.199219 1459.300781 2913 1459.300781 L 2557.800781 1459.199219 "/>
<path fill-rule="nonzero" fill="rgb(100%, 100%, 99.609375%)" fill-opacity="1" d="M 1576.5 2453.5 C 1602.800781 2453.5 1626.601562 2464.199219 1643.898438 2481.398438 C 1661.101562 2498.601562 1671.800781 2522.5 1671.800781 2548.800781 C 1671.800781 2575.101562 1661.101562 2598.898438 1643.898438 2616.199219 C 1626.699219 2633.398438 1602.800781 2644.101562 1576.5 2644.101562 C 1550.199219 2644.101562 1526.398438 2633.398438 1509.101562 2616.199219 C 1491.898438 2599 1481.199219 2575.101562 1481.199219 2548.800781 C 1481.199219 2522.5 1491.898438 2498.699219 1509.101562 2481.398438 C 1526.300781 2464.199219 1550.101562 2453.5 1576.5 2453.5 "/>
<path fill-rule="nonzero" fill="rgb(100%, 100%, 99.609375%)" fill-opacity="1" d="M 1996.101562 2453.5 C 2022.398438 2453.5 2046.199219 2464.199219 2063.5 2481.398438 C 2080.699219 2498.601562 2091.398438 2522.5 2091.398438 2548.800781 C 2091.398438 2575.101562 2080.699219 2598.898438 2063.5 2616.199219 C 2046.300781 2633.398438 2022.398438 2644.101562 1996.101562 2644.101562 C 1969.800781 2644.101562 1946 2633.398438 1928.699219 2616.199219 C 1911.5 2599 1900.800781 2575.101562 1900.800781 2548.800781 C 1900.800781 2522.5 1911.5 2498.699219 1928.699219 2481.398438 C 1946 2464.199219 1969.800781 2453.5 1996.101562 2453.5 "/>
</svg>
