<?xml version="1.0" encoding="UTF-8"?>
<svg xmlns="http://www.w3.org/2000/svg" xmlns:xlink="http://www.w3.org/1999/xlink" width="4000" height="4000" viewBox="0 0 4000 4000">
<defs>
<radialGradient id="radial-pattern-0" gradientUnits="userSpaceOnUse" cx="0" cy="0" fx="0" fy="0" r="2168.02" gradientTransform="matrix(0.769232, 0, 0, 1.230768, 2000, 2000)">
<stop offset="0" stop-color="rgb(99.949646%, 99.952698%, 99.954224%)" stop-opacity="1"/>
<stop offset="0.25" stop-color="rgb(99.807739%, 99.816895%, 99.824524%)" stop-opacity="1"/>
<stop offset="0.34375" stop-color="rgb(99.571228%, 99.589539%, 99.606323%)" stop-opacity="1"/>
<stop offset="0.425781" stop-color="rgb(99.238586%, 99.27063%, 99.302673%)" stop-opacity="1"/>
<stop offset="0.496094" stop-color="rgb(98.947144%, 98.991394%, 99.034119%)" stop-opacity="1"/>
<stop offset="0.527344" stop-color="rgb(98.736572%, 98.789978%, 98.841858%)" stop-opacity="1"/>
<stop offset="0.554688" stop-color="rgb(98.51532%, 98.577881%, 98.638916%)" stop-opacity="1"/>
<stop offset="0.582031" stop-color="rgb(98.287964%, 98.35968%, 98.429871%)" stop-opacity="1"/>
<stop offset="0.605469" stop-color="rgb(98.057556%, 98.138428%, 98.217773%)" stop-opacity="1"/>
<stop offset="0.628906" stop-color="rgb(97.827148%, 97.917175%, 98.008728%)" stop-opacity="1"/>
<stop offset="0.648438" stop-color="rgb(97.601318%, 97.702026%, 97.802734%)" stop-opacity="1"/>
<stop offset="0.667969" stop-color="rgb(97.360229%, 97.471619%, 97.581482%)" stop-opacity="1"/>
<stop offset="0.6875" stop-color="rgb(97.103882%, 97.224426%, 97.344971%)" stop-opacity="1"/>
<stop offset="0.707031" stop-color="rgb(96.858215%, 96.989441%, 97.120667%)" stop-opacity="1"/>
<stop offset="0.722656" stop-color="rgb(96.627808%, 96.769714%, 96.910095%)" stop-opacity="1"/>
<stop offset="0.738281" stop-color="rgb(96.386719%, 96.537781%, 96.687317%)" stop-opacity="1"/>
<stop offset="0.753906" stop-color="rgb(96.165466%, 96.325684%, 96.485901%)" stop-opacity="1"/>
<stop offset="0.765625" stop-color="rgb(95.968628%, 96.138%, 96.305847%)" stop-opacity="1"/>
<stop offset="0.777344" stop-color="rgb(95.765686%, 95.942688%, 96.118164%)" stop-opacity="1"/>
<stop offset="0.789062" stop-color="rgb(95.555115%, 95.739746%, 95.924377%)" stop-opacity="1"/>
<stop offset="0.800781" stop-color="rgb(95.336914%, 95.530701%, 95.724487%)" stop-opacity="1"/>
<stop offset="0.8125" stop-color="rgb(95.111084%, 95.315552%, 95.518494%)" stop-opacity="1"/>
<stop offset="0.824219" stop-color="rgb(94.918823%, 95.129395%, 95.341492%)" stop-opacity="1"/>
<stop offset="0.832031" stop-color="rgb(94.760132%, 94.978333%, 95.196533%)" stop-opacity="1"/>
<stop offset="0.839844" stop-color="rgb(94.598389%, 94.822693%, 95.048523%)" stop-opacity="1"/>
<stop offset="0.847656" stop-color="rgb(94.346619%, 94.58313%, 94.818115%)" stop-opacity="1"/>
<stop offset="0.863281" stop-color="rgb(94.003296%, 94.252014%, 94.502258%)" stop-opacity="1"/>
<stop offset="0.878906" stop-color="rgb(93.690491%, 93.952942%, 94.216919%)" stop-opacity="1"/>
<stop offset="0.890625" stop-color="rgb(93.412781%, 93.687439%, 93.962097%)" stop-opacity="1"/>
<stop offset="0.902344" stop-color="rgb(93.127441%, 93.414307%, 93.699646%)" stop-opacity="1"/>
<stop offset="0.914062" stop-color="rgb(92.883301%, 93.180847%, 93.476868%)" stop-opacity="1"/>
<stop offset="0.921875" stop-color="rgb(92.683411%, 92.988586%, 93.293762%)" stop-opacity="1"/>
<stop offset="0.929688" stop-color="rgb(92.478943%, 92.793274%, 93.106079%)" stop-opacity="1"/>
<stop offset="0.9375" stop-color="rgb(92.271423%, 92.59491%, 92.91687%)" stop-opacity="1"/>
<stop offset="0.945312" stop-color="rgb(92.00592%, 92.340088%, 92.672729%)" stop-opacity="1"/>
<stop offset="0.957031" stop-color="rgb(91.73584%, 92.080688%, 92.424011%)" stop-opacity="1"/>
<stop offset="0.964844" stop-color="rgb(91.514587%, 91.867065%, 92.221069%)" stop-opacity="1"/>
<stop offset="0.972656" stop-color="rgb(91.230774%, 91.595459%, 91.96167%)" stop-opacity="1"/>
<stop offset="0.984375" stop-color="rgb(90.942383%, 91.319275%, 91.696167%)" stop-opacity="1"/>
<stop offset="0.992188" stop-color="rgb(90.705872%, 91.093445%, 91.479492%)" stop-opacity="1"/>
<stop offset="1" stop-color="rgb(90.586853%, 90.979004%, 91.371155%)" stop-opacity="1"/>
</radialGradient>
</defs>


<path fill-rule="nonzero" fill="rgb(94.139099%, 51.367188%, 1.177979%)" fill-opacity="1" d="M 1189.511719 2861.378906 C 1169.578125 2861.378906 1154.609375 2854.699219 1144.589844 2841.339844 C 1134.570312 2827.980469 1129.558594 2808.101562 1129.558594 2781.699219 C 1129.558594 2755.308594 1134.621094 2735.398438 1144.75 2721.988281 C 1154.878906 2708.570312 1169.898438 2701.859375 1189.839844 2701.859375 C 1229.589844 2701.859375 1249.460938 2728.480469 1249.460938 2781.699219 C 1249.460938 2834.820312 1229.480469 2861.378906 1189.511719 2861.378906 Z M 1273.140625 2691.609375 C 1253.910156 2670.710938 1226.140625 2660.261719 1189.839844 2660.261719 C 1153.53125 2660.261719 1125.648438 2670.628906 1106.210938 2691.359375 C 1086.761719 2712.101562 1077.039062 2742.128906 1077.039062 2781.449219 C 1077.039062 2820.769531 1086.730469 2850.929688 1106.128906 2871.941406 C 1125.519531 2892.941406 1153.308594 2903.449219 1189.511719 2903.449219 C 1225.710938 2903.449219 1253.511719 2892.941406 1272.898438 2871.941406 C 1292.289062 2850.929688 1301.988281 2820.878906 1301.988281 2781.769531 C 1301.988281 2742.558594 1292.371094 2712.5 1273.140625 2691.609375 "/>
<path fill-rule="nonzero" fill="rgb(94.139099%, 51.367188%, 1.177979%)" fill-opacity="1" d="M 1513.800781 2900.230469 L 1464.511719 2900.230469 L 1464.511719 2794.738281 C 1464.511719 2781.710938 1462.191406 2771.941406 1457.570312 2765.421875 C 1452.941406 2758.910156 1445.570312 2755.648438 1435.460938 2755.648438 C 1421.679688 2755.648438 1411.730469 2760.25 1405.589844 2769.460938 C 1399.460938 2778.671875 1396.398438 2793.941406 1396.398438 2815.25 L 1396.398438 2900.230469 L 1347.101562 2900.230469 L 1347.101562 2719.558594 L 1384.761719 2719.558594 L 1391.390625 2742.679688 L 1394.128906 2742.679688 C 1399.621094 2733.941406 1407.179688 2727.320312 1416.820312 2722.839844 C 1426.460938 2718.359375 1437.410156 2716.109375 1449.691406 2716.109375 C 1470.679688 2716.109375 1486.609375 2721.789062 1497.488281 2733.171875 C 1508.359375 2744.539062 1513.800781 2760.941406 1513.800781 2782.378906 L 1513.800781 2900.230469 "/>
<path fill-rule="nonzero" fill="rgb(94.139099%, 51.367188%, 1.177979%)" fill-opacity="1" d="M 1613.941406 2900.230469 L 1564.640625 2900.230469 L 1564.640625 2648.761719 L 1613.941406 2648.761719 L 1613.941406 2900.230469 "/>
<path fill-rule="nonzero" fill="rgb(94.139099%, 51.367188%, 1.177979%)" fill-opacity="1" d="M 1663.550781 2672.820312 C 1663.550781 2656.78125 1672.5 2648.761719 1690.378906 2648.761719 C 1708.269531 2648.761719 1717.210938 2656.78125 1717.210938 2672.820312 C 1717.210938 2680.460938 1714.96875 2686.398438 1710.5 2690.660156 C 1706.03125 2694.910156 1699.328125 2697.03125 1690.378906 2697.03125 C 1672.5 2697.03125 1663.550781 2688.960938 1663.550781 2672.820312 "/>
<path fill-rule="nonzero" fill="rgb(94.139099%, 51.367188%, 1.177979%)" fill-opacity="1" d="M 1714.949219 2900.230469 L 1665.648438 2900.230469 L 1665.648438 2719.558594 L 1714.949219 2719.558594 L 1714.949219 2900.230469 "/>
<path fill-rule="nonzero" fill="rgb(94.139099%, 51.367188%, 1.177979%)" fill-opacity="1" d="M 1933.359375 2900.230469 L 1884.070312 2900.230469 L 1884.070312 2794.738281 C 1884.070312 2781.710938 1881.75 2771.941406 1877.128906 2765.421875 C 1872.5 2758.910156 1865.128906 2755.648438 1855.019531 2755.648438 C 1841.238281 2755.648438 1831.289062 2760.25 1825.160156 2769.460938 C 1819.019531 2778.671875 1815.960938 2793.941406 1815.960938 2815.25 L 1815.960938 2900.230469 L 1766.671875 2900.230469 L 1766.671875 2719.558594 L 1804.320312 2719.558594 L 1810.949219 2742.679688 L 1813.691406 2742.679688 C 1819.179688 2733.941406 1826.75 2727.320312 1836.390625 2722.839844 C 1846.019531 2718.359375 1856.980469 2716.109375 1869.25 2716.109375 C 1890.238281 2716.109375 1906.179688 2721.789062 1917.050781 2733.171875 C 1927.929688 2744.539062 1933.359375 2760.941406 1933.359375 2782.378906 L 1933.359375 2900.230469 "/>
<path fill-rule="nonzero" fill="rgb(94.139099%, 51.367188%, 1.177979%)" fill-opacity="1" d="M 2024.289062 2789.441406 C 2025.148438 2777.261719 2028.539062 2767.851562 2034.480469 2761.21875 C 2040.410156 2754.601562 2048.601562 2751.28125 2059.058594 2751.28125 C 2069.519531 2751.28125 2077.820312 2754.601562 2083.96875 2761.21875 C 2090.109375 2767.851562 2093.289062 2777.261719 2093.511719 2789.441406 Z M 2139.730469 2798.351562 C 2139.730469 2772.660156 2132.621094 2752.539062 2118.390625 2737.96875 C 2104.160156 2723.398438 2084.28125 2716.109375 2058.738281 2716.109375 C 2032.011719 2716.109375 2011.070312 2724.378906 1995.929688 2740.921875 C 1980.789062 2757.46875 1973.21875 2780.871094 1973.21875 2811.160156 C 1973.21875 2840.570312 1981.398438 2863.308594 1997.789062 2879.359375 C 2014.171875 2895.421875 2036.910156 2903.449219 2066.011719 2903.449219 C 2080.128906 2903.449219 2092.101562 2902.398438 2101.898438 2900.300781 C 2111.710938 2898.191406 2120.929688 2894.988281 2129.550781 2890.671875 L 2129.550781 2852.53125 C 2118.988281 2857.449219 2108.851562 2861.039062 2099.148438 2863.289062 C 2089.449219 2865.539062 2079.160156 2866.671875 2068.269531 2866.671875 C 2054.25 2866.671875 2043.371094 2862.761719 2035.601562 2854.929688 C 2027.839844 2847.109375 2023.691406 2836.238281 2023.160156 2822.300781 L 2139.730469 2822.300781 L 2139.730469 2798.351562 "/>
<path fill-rule="nonzero" fill="rgb(94.139099%, 51.367188%, 1.177979%)" fill-opacity="1" d="M 2319.660156 2837.328125 C 2319.660156 2858.128906 2312.121094 2874.351562 2297.039062 2885.988281 C 2281.960938 2897.628906 2261.5 2903.449219 2235.648438 2903.449219 C 2207.648438 2903.449219 2186.109375 2899.828125 2171.03125 2892.589844 L 2171.03125 2866.058594 C 2180.71875 2870.148438 2191.28125 2873.378906 2202.691406 2875.761719 C 2214.101562 2878.128906 2225.421875 2879.308594 2236.609375 2879.308594 C 2254.929688 2879.308594 2268.710938 2875.839844 2277.96875 2868.898438 C 2287.230469 2861.960938 2291.859375 2852.300781 2291.859375 2839.921875 C 2291.859375 2831.730469 2290.21875 2825.019531 2286.929688 2819.789062 C 2283.648438 2814.570312 2278.160156 2809.75 2270.460938 2805.328125 C 2262.761719 2800.910156 2251.039062 2795.898438 2235.328125 2790.289062 C 2213.351562 2782.421875 2197.660156 2773.101562 2188.230469 2762.328125 C 2178.808594 2751.550781 2174.101562 2737.488281 2174.101562 2720.140625 C 2174.101562 2701.921875 2180.941406 2687.429688 2194.621094 2676.648438 C 2208.289062 2665.878906 2226.378906 2660.488281 2248.898438 2660.488281 C 2272.371094 2660.488281 2293.96875 2664.800781 2313.679688 2673.429688 L 2305.121094 2697.371094 C 2285.621094 2689.171875 2266.671875 2685.078125 2248.261719 2685.078125 C 2233.71875 2685.078125 2222.359375 2688.210938 2214.171875 2694.449219 C 2205.988281 2700.699219 2201.898438 2709.371094 2201.898438 2720.460938 C 2201.898438 2728.648438 2203.398438 2735.359375 2206.421875 2740.578125 C 2209.441406 2745.808594 2214.53125 2750.609375 2221.691406 2754.96875 C 2228.851562 2759.339844 2239.808594 2764.160156 2254.558594 2769.441406 C 2279.328125 2778.269531 2296.371094 2787.761719 2305.691406 2797.890625 C 2315 2808.019531 2319.660156 2821.171875 2319.660156 2837.328125 "/>
<path fill-rule="nonzero" fill="rgb(94.139099%, 51.367188%, 1.177979%)" fill-opacity="1" d="M 2485.261719 2900.230469 L 2485.261719 2785.730469 C 2485.261719 2771.308594 2481.96875 2760.539062 2475.398438 2753.441406 C 2468.820312 2746.328125 2458.53125 2742.78125 2444.519531 2742.78125 C 2425.871094 2742.78125 2412.261719 2747.839844 2403.691406 2757.960938 C 2395.128906 2768.078125 2390.851562 2784.648438 2390.851562 2807.699219 L 2390.851562 2900.230469 L 2364.019531 2900.230469 L 2364.019531 2648.761719 L 2390.851562 2648.761719 L 2390.851562 2724.910156 C 2390.851562 2734.078125 2390.421875 2741.679688 2389.550781 2747.710938 L 2391.171875 2747.710938 C 2396.449219 2739.210938 2403.960938 2732.5 2413.71875 2727.601562 C 2423.480469 2722.699219 2434.601562 2720.25 2447.101562 2720.25 C 2468.761719 2720.25 2485.011719 2725.390625 2495.839844 2735.679688 C 2506.671875 2745.96875 2512.089844 2762.308594 2512.089844 2784.710938 L 2512.089844 2900.230469 L 2485.261719 2900.230469 "/>
<path fill-rule="nonzero" fill="rgb(94.139099%, 51.367188%, 1.177979%)" fill-opacity="1" d="M 2678.648438 2863.21875 C 2669.539062 2875.019531 2656.199219 2880.921875 2638.628906 2880.921875 C 2621.058594 2880.921875 2607.738281 2874.988281 2598.691406 2863.140625 C 2589.628906 2851.289062 2585.109375 2834.039062 2585.109375 2811.410156 C 2585.109375 2788.558594 2589.578125 2771.371094 2598.53125 2759.839844 C 2607.46875 2748.308594 2620.730469 2742.550781 2638.300781 2742.550781 C 2656.089844 2742.550781 2669.539062 2748.390625 2678.648438 2760.089844 C 2687.75 2771.78125 2692.308594 2788.878906 2692.308594 2811.410156 C 2692.308594 2834.148438 2687.75 2851.421875 2678.648438 2863.21875 Z M 2698.199219 2744.519531 C 2683.601562 2728.039062 2663.898438 2719.789062 2639.109375 2719.789062 C 2613.460938 2719.789062 2593.410156 2727.851562 2578.96875 2743.960938 C 2564.53125 2760.070312 2557.308594 2782.570312 2557.308594 2811.460938 C 2557.308594 2830.101562 2560.648438 2846.378906 2567.328125 2860.28125 C 2574.011719 2874.191406 2583.5 2884.859375 2595.789062 2892.289062 C 2608.070312 2899.730469 2622.140625 2903.449219 2637.980469 2903.449219 C 2663.628906 2903.449219 2683.730469 2895.339844 2698.28125 2879.121094 C 2712.828125 2862.898438 2720.109375 2840.339844 2720.109375 2811.460938 C 2720.109375 2783.328125 2712.800781 2761.019531 2698.199219 2744.519531 "/>
<path fill-rule="nonzero" fill="rgb(94.139099%, 51.367188%, 1.177979%)" fill-opacity="1" d="M 2882.160156 2862.328125 C 2873.488281 2874.71875 2861.511719 2880.921875 2846.21875 2880.921875 C 2827.921875 2880.921875 2814.628906 2875.558594 2806.328125 2864.839844 C 2798.050781 2854.109375 2793.898438 2836.308594 2793.898438 2811.410156 L 2793.898438 2805.429688 C 2794.121094 2783.550781 2798.261719 2767.601562 2806.328125 2757.578125 C 2814.410156 2747.558594 2827.488281 2742.550781 2845.578125 2742.550781 C 2861.300781 2742.550781 2873.488281 2748.449219 2882.160156 2760.25 C 2890.828125 2772.050781 2895.160156 2789 2895.160156 2811.078125 C 2895.160156 2832.859375 2890.828125 2849.941406 2882.160156 2862.328125 Z M 2903.820312 2743.878906 C 2891.058594 2727.820312 2872.941406 2719.789062 2849.46875 2719.789062 C 2837.621094 2719.789062 2827.121094 2721.949219 2817.96875 2726.261719 C 2808.820312 2730.570312 2800.789062 2737.570312 2793.898438 2747.269531 L 2792.609375 2747.269531 L 2788.890625 2723.011719 L 2767.070312 2723.011719 L 2767.070312 2979.761719 L 2793.898438 2979.761719 L 2793.898438 2906.851562 C 2793.898438 2897.578125 2793.261719 2887.769531 2791.960938 2877.421875 L 2793.898438 2877.421875 C 2800.359375 2886.261719 2808.359375 2892.800781 2817.890625 2897.058594 C 2827.421875 2901.320312 2837.941406 2903.449219 2849.46875 2903.449219 C 2872.511719 2903.449219 2890.519531 2895.390625 2903.5 2879.28125 C 2916.46875 2863.171875 2922.960938 2840.558594 2922.960938 2811.460938 C 2922.960938 2782.46875 2916.578125 2759.941406 2903.820312 2743.878906 "/>
<path fill-rule="nonzero" fill="rgb(94.139099%, 51.367188%, 1.177979%)" fill-opacity="1" d="M 1469.960938 3001.398438 L 1492.351562 2958.300781 L 1509.148438 2958.300781 L 1477.648438 3016.128906 L 1477.648438 3052.769531 L 1462.140625 3052.769531 L 1462.140625 3016.648438 L 1430.769531 2958.300781 L 1447.578125 2958.300781 L 1469.960938 3001.398438 "/>
<path fill-rule="nonzero" fill="rgb(94.139099%, 51.367188%, 1.177979%)" fill-opacity="1" d="M 1531.371094 3016.898438 C 1531.371094 3033.390625 1537.46875 3041.628906 1549.679688 3041.628906 C 1561.761719 3041.628906 1567.789062 3033.390625 1567.789062 3016.898438 C 1567.789062 3000.589844 1561.710938 2992.441406 1549.550781 2992.441406 C 1543.171875 2992.441406 1538.539062 2994.550781 1535.671875 2998.761719 C 1532.800781 3002.980469 1531.371094 3009.03125 1531.371094 3016.898438 Z M 1583.441406 3016.898438 C 1583.441406 3028.570312 1580.441406 3037.679688 1574.449219 3044.230469 C 1568.460938 3050.769531 1560.109375 3054.039062 1549.421875 3054.039062 C 1542.738281 3054.039062 1536.828125 3052.53125 1531.699219 3049.519531 C 1526.570312 3046.5 1522.621094 3042.179688 1519.859375 3036.53125 C 1517.101562 3030.898438 1515.71875 3024.351562 1515.71875 3016.898438 C 1515.71875 3005.320312 1518.699219 2996.28125 1524.648438 2989.78125 C 1530.601562 2983.28125 1538.980469 2980.03125 1549.808594 2980.03125 C 1560.160156 2980.03125 1568.351562 2983.351562 1574.378906 2990 C 1580.421875 2996.660156 1583.441406 3005.621094 1583.441406 3016.898438 "/>
<path fill-rule="nonzero" fill="rgb(94.139099%, 51.367188%, 1.177979%)" fill-opacity="1" d="M 1651.261719 3052.769531 L 1649.128906 3043.378906 L 1648.351562 3043.378906 C 1646.238281 3046.699219 1643.238281 3049.300781 1639.339844 3051.199219 C 1635.441406 3053.089844 1630.988281 3054.039062 1626 3054.039062 C 1617.339844 3054.039062 1610.871094 3051.890625 1606.609375 3047.578125 C 1602.339844 3043.269531 1600.210938 3036.75 1600.210938 3028 L 1600.210938 2981.289062 L 1615.53125 2981.289062 L 1615.53125 3025.339844 C 1615.53125 3030.808594 1616.648438 3034.910156 1618.890625 3037.640625 C 1621.128906 3040.378906 1624.640625 3041.738281 1629.421875 3041.738281 C 1635.800781 3041.738281 1640.480469 3039.839844 1643.46875 3036.019531 C 1646.46875 3032.210938 1647.960938 3025.828125 1647.960938 3016.871094 L 1647.960938 2981.289062 L 1663.21875 2981.289062 L 1663.21875 3052.769531 L 1651.261719 3052.769531 "/>
<path fill-rule="nonzero" fill="rgb(94.139099%, 51.367188%, 1.177979%)" fill-opacity="1" d="M 1721.199219 2980.03125 C 1724.261719 2980.03125 1726.78125 2980.238281 1728.769531 2980.671875 L 1727.28125 2994.828125 C 1725.121094 2994.308594 1722.878906 2994.050781 1720.550781 2994.050781 C 1714.46875 2994.050781 1709.539062 2996.039062 1705.761719 3000 C 1701.988281 3003.960938 1700.101562 3009.101562 1700.101562 3015.441406 L 1700.101562 3052.769531 L 1684.910156 3052.769531 L 1684.910156 2981.289062 L 1696.808594 2981.289062 L 1698.808594 2993.910156 L 1699.578125 2993.910156 C 1701.960938 2989.648438 1705.050781 2986.269531 1708.871094 2983.769531 C 1712.691406 2981.28125 1716.800781 2980.03125 1721.199219 2980.03125 "/>
<path fill-rule="nonzero" fill="rgb(94.139099%, 51.367188%, 1.177979%)" fill-opacity="1" d="M 1810.648438 3052.769531 L 1795.199219 3052.769531 L 1795.199219 2971.519531 L 1767.390625 2971.519531 L 1767.390625 2958.300781 L 1838.449219 2958.300781 L 1838.449219 2971.519531 L 1810.648438 2971.519531 L 1810.648438 3052.769531 "/>
<path fill-rule="nonzero" fill="rgb(94.139099%, 51.367188%, 1.177979%)" fill-opacity="1" d="M 1873.410156 3042.429688 C 1878.921875 3042.429688 1883.339844 3040.890625 1886.679688 3037.808594 C 1890.011719 3034.730469 1891.691406 3030.410156 1891.691406 3024.851562 L 1891.691406 3018.640625 L 1882.511719 3019.03125 C 1875.359375 3019.289062 1870.160156 3020.480469 1866.910156 3022.621094 C 1863.660156 3024.75 1862.03125 3028.019531 1862.03125 3032.410156 C 1862.03125 3035.601562 1862.980469 3038.070312 1864.878906 3039.808594 C 1866.769531 3041.558594 1869.621094 3042.429688 1873.410156 3042.429688 Z M 1896.019531 3052.769531 L 1892.980469 3042.800781 L 1892.460938 3042.800781 C 1889.011719 3047.148438 1885.550781 3050.109375 1882.058594 3051.679688 C 1878.570312 3053.25 1874.089844 3054.039062 1868.621094 3054.039062 C 1861.601562 3054.039062 1856.121094 3052.148438 1852.171875 3048.359375 C 1848.230469 3044.570312 1846.261719 3039.210938 1846.261719 3032.28125 C 1846.261719 3024.921875 1849 3019.371094 1854.46875 3015.621094 C 1859.941406 3011.878906 1868.269531 3009.828125 1879.46875 3009.488281 L 1891.820312 3009.101562 L 1891.820312 3005.28125 C 1891.820312 3000.710938 1890.75 2997.289062 1888.621094 2995.03125 C 1886.480469 2992.769531 1883.179688 2991.628906 1878.699219 2991.628906 C 1875.039062 2991.628906 1871.519531 2992.171875 1868.160156 2993.25 C 1864.808594 2994.328125 1861.578125 2995.601562 1858.480469 2997.058594 L 1853.558594 2986.21875 C 1857.441406 2984.199219 1861.679688 2982.660156 1866.289062 2981.601562 C 1870.898438 2980.550781 1875.261719 2980.03125 1879.351562 2980.03125 C 1888.441406 2980.03125 1895.300781 2982.011719 1899.929688 2985.96875 C 1904.558594 2989.929688 1906.878906 2996.148438 1906.878906 3004.640625 L 1906.878906 3052.769531 L 1896.019531 3052.769531 "/>
<path fill-rule="nonzero" fill="rgb(94.139099%, 51.367188%, 1.177979%)" fill-opacity="1" d="M 1938.839844 3004.460938 C 1938.839844 3008.941406 1940 3012.378906 1942.300781 3014.800781 C 1944.609375 3017.210938 1947.921875 3018.410156 1952.238281 3018.410156 C 1961.039062 3018.410156 1965.441406 3013.71875 1965.441406 3004.328125 C 1965.441406 2999.679688 1964.351562 2996.089844 1962.171875 2993.570312 C 1959.988281 2991.050781 1956.679688 2989.789062 1952.238281 2989.789062 C 1947.839844 2989.789062 1944.5 2991.039062 1942.238281 2993.539062 C 1939.96875 2996.039062 1938.839844 2999.679688 1938.839844 3004.460938 Z M 1932.308594 3063.929688 C 1932.308594 3067.210938 1933.789062 3069.730469 1936.738281 3071.5 C 1939.691406 3073.269531 1943.851562 3074.148438 1949.199219 3074.148438 C 1957.480469 3074.148438 1963.640625 3072.960938 1967.699219 3070.589844 C 1971.761719 3068.21875 1973.78125 3065.070312 1973.78125 3061.148438 C 1973.78125 3058.039062 1972.671875 3055.828125 1970.449219 3054.519531 C 1968.230469 3053.199219 1964.101562 3052.539062 1958.058594 3052.539062 L 1946.539062 3052.539062 C 1942.191406 3052.539062 1938.730469 3053.570312 1936.160156 3055.621094 C 1933.589844 3057.671875 1932.308594 3060.429688 1932.308594 3063.929688 Z M 1988.519531 2981.289062 L 1988.519531 2989.609375 L 1976.300781 2991.859375 C 1977.421875 2993.371094 1978.339844 2995.230469 1979.078125 2997.429688 C 1979.808594 2999.628906 1980.179688 3001.960938 1980.179688 3004.421875 C 1980.179688 3011.800781 1977.628906 3017.601562 1972.550781 3021.828125 C 1967.460938 3026.070312 1960.449219 3028.179688 1951.519531 3028.179688 C 1949.238281 3028.179688 1947.171875 3028.011719 1945.308594 3027.660156 C 1942.03125 3029.691406 1940.398438 3032.050781 1940.398438 3034.761719 C 1940.398438 3036.398438 1941.160156 3037.628906 1942.691406 3038.449219 C 1944.21875 3039.261719 1947.039062 3039.671875 1951.128906 3039.671875 L 1963.621094 3039.671875 C 1971.511719 3039.671875 1977.5 3041.359375 1981.601562 3044.71875 C 1985.699219 3048.078125 1987.75 3052.929688 1987.75 3059.269531 C 1987.75 3067.371094 1984.410156 3073.621094 1977.71875 3078.019531 C 1971.039062 3082.410156 1961.378906 3084.609375 1948.738281 3084.609375 C 1939 3084.609375 1931.558594 3082.878906 1926.429688 3079.441406 C 1921.300781 3075.988281 1918.730469 3071.078125 1918.730469 3064.699219 C 1918.730469 3060.300781 1920.121094 3056.601562 1922.898438 3053.609375 C 1925.691406 3050.609375 1929.578125 3048.53125 1934.578125 3047.371094 C 1932.550781 3046.5 1930.878906 3045.121094 1929.570312 3043.199219 C 1928.25 3041.289062 1927.601562 3039.269531 1927.601562 3037.160156 C 1927.601562 3034.488281 1928.351562 3032.230469 1929.859375 3030.378906 C 1931.371094 3028.53125 1933.609375 3026.691406 1936.578125 3024.878906 C 1932.878906 3023.289062 1929.871094 3020.699219 1927.558594 3017.089844 C 1925.261719 3013.5 1924.101562 3009.289062 1924.101562 3004.460938 C 1924.101562 2996.699219 1926.550781 2990.691406 1931.441406 2986.421875 C 1936.339844 2982.160156 1943.308594 2980.03125 1952.371094 2980.03125 C 1954.390625 2980.03125 1956.519531 2980.160156 1958.738281 2980.441406 C 1960.960938 2980.710938 1962.628906 2980.988281 1963.75 2981.289062 L 1988.519531 2981.289062 "/>
<path fill-rule="nonzero" fill="rgb(94.139099%, 51.367188%, 1.177979%)" fill-opacity="1" d="M 2016.929688 3052.769531 L 2001.730469 3052.769531 L 2001.730469 2952.210938 L 2016.929688 2952.210938 L 2016.929688 3052.769531 "/>
<path fill-rule="nonzero" fill="rgb(94.139099%, 51.367188%, 1.177979%)" fill-opacity="1" d="M 2053.839844 3052.769531 L 2038.648438 3052.769531 L 2038.648438 2981.289062 L 2053.839844 2981.289062 Z M 2037.738281 2962.28125 C 2037.738281 2959.570312 2038.488281 2957.480469 2039.96875 2956.019531 C 2041.460938 2954.550781 2043.578125 2953.820312 2046.339844 2953.820312 C 2049.011719 2953.820312 2051.089844 2954.550781 2052.578125 2956.019531 C 2054.070312 2957.480469 2054.808594 2959.570312 2054.808594 2962.28125 C 2054.808594 2964.859375 2054.070312 2966.890625 2052.578125 2968.371094 C 2051.089844 2969.859375 2049.011719 2970.601562 2046.339844 2970.601562 C 2043.578125 2970.601562 2041.460938 2969.859375 2039.96875 2968.371094 C 2038.488281 2966.890625 2037.738281 2964.859375 2037.738281 2962.28125 "/>
<path fill-rule="nonzero" fill="rgb(94.139099%, 51.367188%, 1.177979%)" fill-opacity="1" d="M 2138.441406 3052.769531 L 2123.191406 3052.769531 L 2123.191406 3008.839844 C 2123.191406 3003.328125 2122.078125 2999.21875 2119.859375 2996.511719 C 2117.640625 2993.789062 2114.121094 2992.441406 2109.300781 2992.441406 C 2102.878906 2992.441406 2098.191406 2994.328125 2095.210938 2998.121094 C 2092.238281 3001.910156 2090.761719 3008.269531 2090.761719 3017.179688 L 2090.761719 3052.769531 L 2075.558594 3052.769531 L 2075.558594 2981.289062 L 2087.460938 2981.289062 L 2089.589844 2990.679688 L 2090.371094 2990.679688 C 2092.519531 2987.28125 2095.578125 2984.660156 2099.539062 2982.800781 C 2103.511719 2980.949219 2107.898438 2980.03125 2112.730469 2980.03125 C 2129.871094 2980.03125 2138.441406 2988.75 2138.441406 3006.191406 L 2138.441406 3052.769531 "/>
<path fill-rule="nonzero" fill="rgb(94.139099%, 51.367188%, 1.177979%)" fill-opacity="1" d="M 2188.070312 2991.519531 C 2183.238281 2991.519531 2179.371094 2993.039062 2176.460938 2996.089844 C 2173.539062 2999.148438 2171.808594 3003.601562 2171.25 3009.449219 L 2203.730469 3009.449219 C 2203.640625 3003.558594 2202.210938 2999.101562 2199.460938 2996.058594 C 2196.699219 2993.03125 2192.898438 2991.519531 2188.070312 2991.519531 Z M 2190.851562 3054.039062 C 2179.730469 3054.039062 2171.03125 3050.800781 2164.75 3044.320312 C 2158.480469 3037.839844 2155.339844 3028.921875 2155.339844 3017.550781 C 2155.339844 3005.878906 2158.25 2996.710938 2164.078125 2990.039062 C 2169.898438 2983.359375 2177.898438 2980.03125 2188.070312 2980.03125 C 2197.511719 2980.03125 2204.96875 2982.890625 2210.449219 2988.621094 C 2215.921875 2994.351562 2218.660156 3002.230469 2218.660156 3012.269531 L 2218.660156 3020.480469 L 2170.988281 3020.480469 C 2171.210938 3027.378906 2173.078125 3032.699219 2176.621094 3036.410156 C 2180.148438 3040.109375 2185.128906 3041.96875 2191.558594 3041.96875 C 2195.78125 3041.96875 2199.71875 3041.570312 2203.359375 3040.78125 C 2207 3039.980469 2210.921875 3038.648438 2215.101562 3036.800781 L 2215.101562 3049.171875 C 2211.398438 3050.949219 2207.640625 3052.199219 2203.851562 3052.941406 C 2200.058594 3053.671875 2195.71875 3054.039062 2190.851562 3054.039062 "/>
<path fill-rule="nonzero" fill="rgb(94.139099%, 51.367188%, 1.177979%)" fill-opacity="1" d="M 2346.429688 3052.769531 L 2330.910156 3052.769531 L 2330.910156 3010.140625 L 2287.351562 3010.140625 L 2287.351562 3052.769531 L 2271.898438 3052.769531 L 2271.898438 2958.300781 L 2287.351562 2958.300781 L 2287.351562 2996.921875 L 2330.910156 2996.921875 L 2330.910156 2958.300781 L 2346.429688 2958.300781 L 2346.429688 3052.769531 "/>
<path fill-rule="nonzero" fill="rgb(94.139099%, 51.367188%, 1.177979%)" fill-opacity="1" d="M 2398.171875 2991.519531 C 2393.339844 2991.519531 2389.46875 2993.039062 2386.558594 2996.089844 C 2383.648438 2999.148438 2381.921875 3003.601562 2381.351562 3009.449219 L 2413.828125 3009.449219 C 2413.75 3003.558594 2412.320312 2999.101562 2409.558594 2996.058594 C 2406.800781 2993.03125 2403 2991.519531 2398.171875 2991.519531 Z M 2400.960938 3054.039062 C 2389.828125 3054.039062 2381.128906 3050.800781 2374.859375 3044.320312 C 2368.578125 3037.839844 2365.449219 3028.921875 2365.449219 3017.550781 C 2365.449219 3005.878906 2368.359375 2996.710938 2374.179688 2990.039062 C 2380 2983.359375 2388 2980.03125 2398.171875 2980.03125 C 2407.621094 2980.03125 2415.078125 2982.890625 2420.550781 2988.621094 C 2426.03125 2994.351562 2428.769531 3002.230469 2428.769531 3012.269531 L 2428.769531 3020.480469 L 2381.089844 3020.480469 C 2381.308594 3027.378906 2383.191406 3032.699219 2386.71875 3036.410156 C 2390.261719 3040.109375 2395.238281 3041.96875 2401.660156 3041.96875 C 2405.890625 3041.96875 2409.820312 3041.570312 2413.46875 3040.78125 C 2417.109375 3039.980469 2421.019531 3038.648438 2425.210938 3036.800781 L 2425.210938 3049.171875 C 2421.5 3050.949219 2417.75 3052.199219 2413.949219 3052.941406 C 2410.160156 3053.671875 2405.828125 3054.039062 2400.960938 3054.039062 "/>
<path fill-rule="nonzero" fill="rgb(94.139099%, 51.367188%, 1.177979%)" fill-opacity="1" d="M 2482.300781 2980.03125 C 2485.359375 2980.03125 2487.878906 2980.238281 2489.871094 2980.671875 L 2488.378906 2994.828125 C 2486.21875 2994.308594 2483.980469 2994.050781 2481.648438 2994.050781 C 2475.558594 2994.050781 2470.628906 2996.039062 2466.859375 3000 C 2463.089844 3003.960938 2461.199219 3009.101562 2461.199219 3015.441406 L 2461.199219 3052.769531 L 2446.011719 3052.769531 L 2446.011719 2981.289062 L 2457.898438 2981.289062 L 2459.910156 2993.910156 L 2460.679688 2993.910156 C 2463.050781 2989.648438 2466.148438 2986.269531 2469.96875 2983.769531 C 2473.789062 2981.28125 2477.890625 2980.03125 2482.300781 2980.03125 "/>
<path fill-rule="nonzero" fill="rgb(94.139099%, 51.367188%, 1.177979%)" fill-opacity="1" d="M 2531.539062 2991.519531 C 2526.710938 2991.519531 2522.839844 2993.039062 2519.929688 2996.089844 C 2517.011719 2999.148438 2515.28125 3003.601562 2514.71875 3009.449219 L 2547.199219 3009.449219 C 2547.109375 3003.558594 2545.691406 2999.101562 2542.929688 2996.058594 C 2540.171875 2993.03125 2536.371094 2991.519531 2531.539062 2991.519531 Z M 2534.328125 3054.039062 C 2523.199219 3054.039062 2514.5 3050.800781 2508.230469 3044.320312 C 2501.949219 3037.839844 2498.820312 3028.921875 2498.820312 3017.550781 C 2498.820312 3005.878906 2501.730469 2996.710938 2507.550781 2990.039062 C 2513.371094 2983.359375 2521.371094 2980.03125 2531.539062 2980.03125 C 2540.980469 2980.03125 2548.441406 2982.890625 2553.921875 2988.621094 C 2559.390625 2994.351562 2562.128906 3002.230469 2562.128906 3012.269531 L 2562.128906 3020.480469 L 2514.460938 3020.480469 C 2514.679688 3027.378906 2516.550781 3032.699219 2520.089844 3036.410156 C 2523.621094 3040.109375 2528.609375 3041.96875 2535.03125 3041.96875 C 2539.261719 3041.96875 2543.191406 3041.570312 2546.839844 3040.78125 C 2550.480469 3039.980469 2554.390625 3038.648438 2558.570312 3036.800781 L 2558.570312 3049.171875 C 2554.871094 3050.949219 2551.121094 3052.199219 2547.320312 3052.941406 C 2543.53125 3053.671875 2539.191406 3054.039062 2534.328125 3054.039062 "/>
<path fill-rule="nonzero" fill="rgb(94.53125%, 50.976562%, 0.784302%)" fill-opacity="1" d="M 2248.351562 2229.859375 L 2278.238281 2523.441406 L 2346.199219 2316.519531 L 2338.738281 2232.101562 C 2302.140625 2232.101562 2255.820312 2229.859375 2248.351562 2229.859375 Z M 2140.78125 1148.171875 L 2140.039062 1149.660156 L 2140.78125 1149.660156 L 2158.699219 1324.460938 L 2248.351562 1287.109375 L 2244.621094 1244.53125 L 2140.78125 1148.171875 "/>
<path fill-rule="nonzero" fill="rgb(94.139099%, 51.367188%, 1.177979%)" fill-opacity="1" d="M 2450.03125 2252.269531 C 2473.199219 2252.269531 2491.871094 2268.710938 2491.871094 2289.621094 C 2492.621094 2310.550781 2474.691406 2327.730469 2451.53125 2327.730469 C 2428.378906 2328.46875 2409.710938 2311.289062 2408.949219 2291.121094 C 2408.949219 2270.199219 2426.890625 2253.019531 2450.03125 2252.269531 Z M 2471.699219 1276.660156 C 2478.421875 1276.660156 2484.410156 1281.890625 2484.410156 1288.609375 C 2485.148438 1295.328125 2479.171875 1301.308594 2471.699219 1301.308594 L 2313.339844 1303.550781 C 2305.871094 1304.289062 2300.640625 1298.320312 2299.890625 1291.601562 C 2299.890625 1287.859375 2302.140625 1284.878906 2304.378906 1282.628906 C 2306.609375 1280.390625 2309.601562 1279.640625 2312.589844 1279.640625 Z M 2544.910156 1274.410156 C 2554.621094 1274.410156 2562.089844 1280.390625 2562.089844 1287.859375 C 2562.089844 1295.328125 2554.621094 1301.308594 2545.660156 1302.058594 C 2536.691406 1302.058594 2529.230469 1296.078125 2529.230469 1288.609375 C 2529.230469 1284.878906 2530.71875 1281.140625 2533.710938 1278.148438 C 2536.691406 1275.910156 2541.179688 1274.410156 2544.910156 1274.410156 Z M 2677.128906 1239.308594 L 2182.609375 1247.53125 C 2170.660156 1247.53125 2158.699219 1249.761719 2148.25 1252.75 L 2156.46875 1337.910156 C 2157.21875 1337.160156 2158.699219 1337.160156 2159.460938 1337.160156 L 2704.019531 1328.199219 C 2722.691406 1328.199219 2737.628906 1340.898438 2738.390625 1357.328125 L 2754.808594 2198.488281 L 2243.121094 2206.699219 L 2259.558594 2375.53125 L 2699.539062 2368.808594 C 2766.769531 2367.308594 2820.558594 2321 2819.058594 2264.21875 L 2801.121094 1340.160156 C 2800.378906 1283.378906 2745.109375 1238.558594 2677.128906 1239.308594 "/>
<path fill-rule="nonzero" fill="rgb(100%, 76.5625%, 0%)" fill-opacity="1" d="M 1440.839844 1260.21875 L 1296.660156 2364.320312 L 2278.238281 2523.441406 L 2140.78125 1149.660156 L 1440.839844 1260.21875 "/>
<path fill-rule="nonzero" fill="rgb(94.139099%, 51.367188%, 1.177979%)" fill-opacity="1" d="M 1745.621094 915.839844 C 1647.011719 922.558594 1572.320312 1020.429688 1580.53125 1136.210938 L 1592.480469 1309.53125 C 1583.519531 1318.488281 1578.289062 1333.429688 1579.789062 1348.371094 C 1581.269531 1373.769531 1599.210938 1393.191406 1620.128906 1391.699219 C 1640.289062 1390.210938 1655.96875 1368.539062 1653.738281 1343.140625 C 1652.980469 1325.960938 1644.039062 1311.761719 1632.070312 1304.289062 L 1620.128906 1133.230469 C 1613.390625 1046.578125 1670.171875 970.378906 1749.351562 964.398438 C 1828.53125 959.171875 1895.011719 1026.398438 1900.988281 1113.058594 L 1913.691406 1284.878906 C 1903.230469 1294.578125 1898 1309.53125 1899.511719 1325.210938 C 1900.988281 1350.609375 1918.929688 1370.03125 1939.839844 1368.539062 C 1960.011719 1367.039062 1974.941406 1345.378906 1973.460938 1319.980469 C 1971.960938 1304.289062 1964.480469 1290.101562 1953.289062 1281.890625 L 1940.578125 1110.820312 C 1932.359375 994.28125 1844.21875 908.371094 1745.621094 915.839844 "/>
</svg>
